<svg width="20" height="20" viewBox="0 0 20 20" fill="currentColor" xmlns="http://www.w3.org/2000/svg">
<path d="M5.08299 14.229C5.83299 13.715 6.61433 13.333 7.42699 13.083C8.23966 12.833 9.09733 12.708 9.99999 12.708C10.9027 12.708 11.7603 12.833 12.573 13.083C13.3857 13.333 14.167 13.715 14.917 14.229C15.431 13.6597 15.8233 13.014 16.094 12.292C16.3647 11.5693 16.5 10.8053 16.5 9.99999C16.5 8.19466 15.868 6.65999 14.604 5.39599C13.34 4.13199 11.8053 3.49999 9.99999 3.49999C8.19466 3.49999 6.65999 4.13199 5.39599 5.39599C4.13199 6.65999 3.49999 8.19466 3.49999 9.99999C3.49999 10.8053 3.63533 11.5693 3.90599 12.292C4.17666 13.014 4.56899 13.6597 5.08299 14.229ZM9.99999 11.292C9.22199 11.292 8.56233 11.021 8.02099 10.479C7.47899 9.93766 7.20799 9.27799 7.20799 8.49999C7.20799 7.72199 7.47899 7.06233 8.02099 6.52099C8.56233 5.97899 9.22199 5.70799 9.99999 5.70799C10.778 5.70799 11.4377 5.97899 11.979 6.52099C12.521 7.06233 12.792 7.72199 12.792 8.49999C12.792 9.27799 12.521 9.93766 11.979 10.479C11.4377 11.021 10.778 11.292 9.99999 11.292ZM9.99999 17.583C8.95866 17.583 7.97599 17.3853 7.05199 16.99C6.12866 16.594 5.32299 16.0523 4.63499 15.365C3.94766 14.677 3.40599 13.8713 3.00999 12.948C2.61466 12.024 2.41699 11.0413 2.41699 9.99999C2.41699 8.94466 2.61466 7.95866 3.00999 7.04199C3.40599 6.12533 3.94766 5.32299 4.63499 4.63499C5.32299 3.94766 6.12866 3.40599 7.05199 3.00999C7.97599 2.61466 8.95866 2.41699 9.99999 2.41699C11.0553 2.41699 12.0413 2.61466 12.958 3.00999C13.8747 3.40599 14.677 3.94766 15.365 4.63499C16.0523 5.32299 16.594 6.12533 16.99 7.04199C17.3853 7.95866 17.583 8.94466 17.583 9.99999C17.583 11.0413 17.3853 12.024 16.99 12.948C16.594 13.8713 16.0523 14.677 15.365 15.365C14.677 16.0523 13.8747 16.594 12.958 16.99C12.0413 17.3853 11.0553 17.583 9.99999 17.583V17.583ZM9.99999 16.5C10.736 16.5 11.4617 16.3717 12.177 16.115C12.8923 15.8577 13.5417 15.493 14.125 15.021C13.5277 14.6323 12.8783 14.3303 12.177 14.115C11.4757 13.8997 10.75 13.792 9.99999 13.792C9.24999 13.792 8.52066 13.8927 7.81199 14.094C7.10399 14.2953 6.45833 14.6043 5.87499 15.021C6.45833 15.493 7.10766 15.8577 7.82299 16.115C8.53833 16.3717 9.26399 16.5 9.99999 16.5ZM9.99999 10.208C10.472 10.208 10.8747 10.0413 11.208 9.70799C11.5413 9.37466 11.708 8.97199 11.708 8.49999C11.708 8.02799 11.5413 7.62533 11.208 7.29199C10.8747 6.95866 10.472 6.79199 9.99999 6.79199C9.52799 6.79199 9.12533 6.95866 8.79199 7.29199C8.45866 7.62533 8.29199 8.02799 8.29199 8.49999C8.29199 8.97199 8.45866 9.37466 8.79199 9.70799C9.12533 10.0413 9.52799 10.208 9.99999 10.208Z" />
</svg>
