<svg width="20" height="20" viewBox="0 0 20 20" fill="currentColor" xmlns="http://www.w3.org/2000/svg">
<path d="M4.74999 16.583C4.37533 16.583 4.05933 16.4547 3.80199 16.198C3.54533 15.9407 3.41699 15.6247 3.41699 15.25V4.74999C3.41699 4.37533 3.54533 4.05933 3.80199 3.80199C4.05933 3.54533 4.37533 3.41699 4.74999 3.41699H8.52099C8.50699 3.00033 8.64599 2.64599 8.93799 2.35399C9.22933 2.06266 9.58333 1.91699 9.99999 1.91699C10.4167 1.91699 10.7707 2.06266 11.062 2.35399C11.354 2.64599 11.493 3.00033 11.479 3.41699H15.25C15.6247 3.41699 15.9407 3.54533 16.198 3.80199C16.4547 4.05933 16.583 4.37533 16.583 4.74999V15.25C16.583 15.6247 16.4547 15.9407 16.198 16.198C15.9407 16.4547 15.6247 16.583 15.25 16.583H4.74999ZM9.99999 4.08299C10.1387 4.08299 10.2567 4.03466 10.354 3.93799C10.4513 3.84066 10.5 3.72233 10.5 3.58299C10.5 3.43033 10.4513 3.30899 10.354 3.21899C10.2567 3.12833 10.1387 3.08299 9.99999 3.08299C9.86133 3.08299 9.74333 3.12833 9.64599 3.21899C9.54866 3.30899 9.49999 3.43033 9.49999 3.58299C9.49999 3.72233 9.54866 3.84066 9.64599 3.93799C9.74333 4.03466 9.86133 4.08299 9.99999 4.08299ZM4.49999 14.562C5.27799 13.9233 6.13899 13.4477 7.08299 13.135C8.02766 12.823 8.99999 12.667 9.99999 12.667C11 12.667 11.9723 12.8197 12.917 13.125C13.861 13.4303 14.722 13.9093 15.5 14.562V4.74999C15.5 4.69466 15.4723 4.63899 15.417 4.58299C15.361 4.52766 15.3053 4.49999 15.25 4.49999H4.74999C4.69466 4.49999 4.63899 4.52766 4.58299 4.58299C4.52766 4.63899 4.49999 4.69466 4.49999 4.74999V14.562ZM9.99999 11.542C10.778 11.542 11.4377 11.2677 11.979 10.719C12.521 10.1703 12.792 9.50699 12.792 8.72899C12.792 7.95099 12.521 7.29466 11.979 6.75999C11.4377 6.22533 10.778 5.95799 9.99999 5.95799C9.22199 5.95799 8.56233 6.22899 8.02099 6.77099C7.47899 7.31233 7.20799 7.97199 7.20799 8.74999C7.20799 9.52799 7.47899 10.1877 8.02099 10.729C8.56233 11.271 9.22199 11.542 9.99999 11.542ZM5.06199 15.5H14.938V15.542C14.2293 14.9447 13.455 14.4967 12.615 14.198C11.7743 13.8993 10.9027 13.75 9.99999 13.75C9.11133 13.75 8.24666 13.8993 7.40599 14.198C6.56599 14.4967 5.78466 14.9377 5.06199 15.521V15.5V15.5ZM9.99999 10.458C9.52799 10.458 9.12533 10.288 8.79199 9.94799C8.45866 9.60799 8.29199 9.20866 8.29199 8.74999C8.29199 8.27799 8.45866 7.87533 8.79199 7.54199C9.12533 7.20866 9.52799 7.04199 9.99999 7.04199C10.472 7.04199 10.8747 7.20866 11.208 7.54199C11.5413 7.87533 11.708 8.27799 11.708 8.74999C11.708 9.20866 11.5413 9.60799 11.208 9.94799C10.8747 10.288 10.472 10.458 9.99999 10.458Z" fill="black"/>
</svg>
