<svg width="20" height="20" viewBox="0 0 20 20" fill="currentColor" xmlns="http://www.w3.org/2000/svg">
<path d="M13.021 13.583L13.542 13.083C13.6393 12.9723 13.688 12.858 13.688 12.74C13.688 12.6213 13.6393 12.5067 13.542 12.396L10.667 9.54199C10.7363 9.38866 10.7883 9.22866 10.823 9.06199C10.8577 8.89533 10.875 8.72866 10.875 8.56199C10.875 7.88199 10.6423 7.30566 10.177 6.83299C9.71166 6.36099 9.13199 6.12499 8.43799 6.12499C8.27133 6.12499 8.10466 6.14599 7.93799 6.18799C7.77133 6.22933 7.60466 6.28466 7.43799 6.35399L9.10399 8.02099L7.97899 9.14599L6.31199 7.47899C6.22933 7.64566 6.16699 7.81233 6.12499 7.97899C6.08299 8.14566 6.06199 8.31933 6.06199 8.49999C6.06199 9.16666 6.29833 9.73599 6.77099 10.208C7.24299 10.6807 7.81233 10.917 8.47899 10.917C8.64566 10.917 8.81233 10.903 8.97899 10.875C9.14566 10.847 9.31233 10.7913 9.47899 10.708L12.354 13.583C12.4653 13.6943 12.5767 13.75 12.688 13.75C12.7987 13.75 12.9097 13.6943 13.021 13.583V13.583ZM9.99999 17.583C8.95866 17.583 7.97599 17.3853 7.05199 16.99C6.12866 16.594 5.32299 16.0523 4.63499 15.365C3.94766 14.677 3.40599 13.8713 3.00999 12.948C2.61466 12.024 2.41699 11.0413 2.41699 9.99999C2.41699 8.94466 2.61466 7.95866 3.00999 7.04199C3.40599 6.12533 3.94766 5.32299 4.63499 4.63499C5.32299 3.94766 6.12866 3.40599 7.05199 3.00999C7.97599 2.61466 8.95866 2.41699 9.99999 2.41699C11.0553 2.41699 12.0413 2.61466 12.958 3.00999C13.8747 3.40599 14.677 3.94766 15.365 4.63499C16.0523 5.32299 16.594 6.12866 16.99 7.05199C17.3853 7.97599 17.583 8.95866 17.583 9.99999C17.583 11.0413 17.3853 12.024 16.99 12.948C16.594 13.8713 16.0523 14.677 15.365 15.365C14.677 16.0523 13.8713 16.594 12.948 16.99C12.024 17.3853 11.0413 17.583 9.99999 17.583V17.583ZM9.99999 16.5C11.8053 16.5 13.34 15.868 14.604 14.604C15.868 13.34 16.5 11.8053 16.5 9.99999C16.5 8.19466 15.868 6.65999 14.604 5.39599C13.34 4.13199 11.8053 3.49999 9.99999 3.49999C8.19466 3.49999 6.65999 4.13199 5.39599 5.39599C4.13199 6.65999 3.49999 8.19466 3.49999 9.99999C3.49999 11.8053 4.13199 13.34 5.39599 14.604C6.65999 15.868 8.19466 16.5 9.99999 16.5Z" />
</svg>
