<svg width="20" height="20" viewBox="0 0 20 20" fill="currentColor" xmlns="http://www.w3.org/2000/svg">
<path d="M3.74999 16.583C3.37533 16.583 3.05933 16.4547 2.80199 16.198C2.54533 15.9407 2.41699 15.6247 2.41699 15.25V6.75001C2.41699 6.37534 2.54533 6.05934 2.80199 5.80201C3.05933 5.54534 3.37533 5.41701 3.74999 5.41701H6.41699V4.16701C6.41699 3.79167 6.54533 3.47567 6.80199 3.21901C7.05933 2.96167 7.37533 2.83301 7.74999 2.83301H12.25C12.6247 2.83301 12.9407 2.96167 13.198 3.21901C13.4547 3.47567 13.583 3.79167 13.583 4.16701V5.41701H16.25C16.6247 5.41701 16.9407 5.54534 17.198 5.80201C17.4547 6.05934 17.583 6.37534 17.583 6.75001V15.25C17.583 15.6247 17.4547 15.9407 17.198 16.198C16.9407 16.4547 16.6247 16.583 16.25 16.583H3.74999ZM7.49999 5.41701H12.5V4.16701C12.5 4.11101 12.4723 4.05534 12.417 4.00001C12.361 3.94467 12.3053 3.91701 12.25 3.91701H7.74999C7.69466 3.91701 7.63899 3.94467 7.58299 4.00001C7.52766 4.05534 7.49999 4.11101 7.49999 4.16701V5.41701ZM16.5 12.042H12.083V13.583H7.91699V12.042H3.49999V15.25C3.49999 15.3053 3.52766 15.361 3.58299 15.417C3.63899 15.4723 3.69466 15.5 3.74999 15.5H16.25C16.3053 15.5 16.361 15.4723 16.417 15.417C16.4723 15.361 16.5 15.3053 16.5 15.25V12.042ZM8.99999 12.5H11V10.5H8.99999V12.5ZM3.49999 10.958H7.91699V9.41701H12.083V10.958H16.5V6.75001C16.5 6.69467 16.4723 6.63901 16.417 6.58301C16.361 6.52767 16.3053 6.50001 16.25 6.50001H3.74999C3.69466 6.50001 3.63899 6.52767 3.58299 6.58301C3.52766 6.63901 3.49999 6.69467 3.49999 6.75001V10.958Z" />
</svg>
