<svg width="20" height="20" viewBox="0 0 20 20" fill="currentColor" xmlns="http://www.w3.org/2000/svg">
<path d="M14.958 10.667V9.333H17.979V10.667H14.958ZM15.917 16.229L13.5 14.417L14.312 13.354L16.729 15.146L15.917 16.229ZM14.292 6.604L13.479 5.542L15.896 3.729L16.708 4.792L14.292 6.604ZM4.375 15.396V12.146H3.604C3.18733 12.146 2.81933 12.014 2.5 11.75C2.18066 11.486 2.021 11.1457 2.021 10.729V9.271C2.021 8.85434 2.18066 8.514 2.5 8.25C2.81933 7.986 3.18733 7.854 3.604 7.854H6.75L10.479 5.625V14.375L6.75 12.146H5.708V15.396H4.375ZM11.667 12.604V7.396C12.0003 7.70134 12.2677 8.07634 12.469 8.521C12.6703 8.96567 12.771 9.45867 12.771 10C12.771 10.5413 12.6703 11.0343 12.469 11.479C12.2677 11.9237 12.0003 12.2987 11.667 12.604ZM3.604 9.188C3.54866 9.188 3.49333 9.21567 3.438 9.271C3.382 9.32634 3.354 9.382 3.354 9.438V10.562C3.354 10.618 3.382 10.6737 3.438 10.729C3.49333 10.7843 3.54866 10.812 3.604 10.812H7.167L9.146 12.021V7.979L7.167 9.188H3.604Z" />
</svg>
