<svg width="20" height="20" viewBox="0 0 20 20" fill="currentColor" xmlns="http://www.w3.org/2000/svg">
<path d="M3.80199 16.198C4.05933 16.4547 4.37533 16.583 4.74999 16.583H15.25C15.6247 16.583 15.9407 16.4547 16.198 16.198C16.4547 15.9407 16.583 15.6247 16.583 15.25V4.74999C16.583 4.37533 16.4547 4.05933 16.198 3.80199C15.9407 3.54533 15.6247 3.41699 15.25 3.41699H4.74999C4.37533 3.41699 4.05933 3.54533 3.80199 3.80199C3.54533 4.05933 3.41699 4.37533 3.41699 4.74999V15.25C3.41699 15.6247 3.54533 15.9407 3.80199 16.198Z" />
<path d="M9.167 12.354L13.125 8.417L12.354 7.646L9.167 10.812L7.75 9.417L7 10.188L9.167 12.354Z" fill="white"/>
</svg>
