<svg width="20" height="20" viewBox="0 0 20 20" fill="currentColor"  xmlns="http://www.w3.org/2000/svg">
<path d="M6.20799 13.792H8.79199V11.208H6.20799V13.792ZM11.208 13.792H13.792V11.208H11.208V13.792ZM6.20799 8.79199H8.79199V6.20799H6.20799V8.79199ZM11.208 8.79199H13.792V6.20799H11.208V8.79199ZM4.74999 16.583C4.37533 16.583 4.05933 16.4547 3.80199 16.198C3.54533 15.9407 3.41699 15.6247 3.41699 15.25V4.74999C3.41699 4.37533 3.54533 4.05933 3.80199 3.80199C4.05933 3.54533 4.37533 3.41699 4.74999 3.41699H15.25C15.6247 3.41699 15.9407 3.54533 16.198 3.80199C16.4547 4.05933 16.583 4.37533 16.583 4.74999V15.25C16.583 15.6247 16.4547 15.9407 16.198 16.198C15.9407 16.4547 15.6247 16.583 15.25 16.583H4.74999ZM4.74999 15.5H15.25C15.3053 15.5 15.361 15.4723 15.417 15.417C15.4723 15.361 15.5 15.3053 15.5 15.25V4.74999C15.5 4.69466 15.4723 4.63899 15.417 4.58299C15.361 4.52766 15.3053 4.49999 15.25 4.49999H4.74999C4.69466 4.49999 4.63899 4.52766 4.58299 4.58299C4.52766 4.63899 4.49999 4.69466 4.49999 4.74999V15.25C4.49999 15.3053 4.52766 15.361 4.58299 15.417C4.63899 15.4723 4.69466 15.5 4.74999 15.5V15.5ZM4.49999 4.49999V15.5V4.49999Z" />
</svg>
