<svg width="20" height="20" viewBox="0 0 20 20" fill="currentColor" xmlns="http://www.w3.org/2000/svg">
<path d="M7.20799 14.792H12.792V13.708H7.20799V14.792ZM7.20799 11.792H12.792V10.708H7.20799V11.792ZM5.74999 17.583C5.37533 17.583 5.05933 17.4547 4.80199 17.198C4.54533 16.9407 4.41699 16.6247 4.41699 16.25V3.74999C4.41699 3.37533 4.54533 3.05933 4.80199 2.80199C5.05933 2.54533 5.37533 2.41699 5.74999 2.41699H12.208L15.583 5.79199V16.25C15.583 16.6247 15.4547 16.9407 15.198 17.198C14.9407 17.4547 14.6247 17.583 14.25 17.583H5.74999ZM11.417 6.58299V3.49999H5.74999C5.69466 3.49999 5.63899 3.52766 5.58299 3.58299C5.52766 3.63899 5.49999 3.69466 5.49999 3.74999V16.25C5.49999 16.3053 5.52766 16.361 5.58299 16.417C5.63899 16.4723 5.69466 16.5 5.74999 16.5H14.25C14.3053 16.5 14.361 16.4723 14.417 16.417C14.4723 16.361 14.5 16.3053 14.5 16.25V6.58299H11.417ZM5.49999 3.49999V7.02099V3.49999V16.5V3.49999Z" />
</svg>
