<svg width="20" height="20" viewBox="0 0 20 20" fill="currentColor" xmlns="http://www.w3.org/2000/svg">
<path d="M4.37499 15.75H5.47899L13 8.22901L11.917 7.12501L4.37499 14.667V15.75ZM15.812 7.31201L12.812 4.29201L13.583 3.52101C13.9023 3.21501 14.281 3.06201 14.719 3.06201C15.1563 3.06201 15.5277 3.21501 15.833 3.52101L16.771 4.45801C17.021 4.72201 17.146 5.04501 17.146 5.42701C17.146 5.80901 17.014 6.12501 16.75 6.37501L15.812 7.31201ZM14.896 8.22901L6.04199 17.083H3.04199V14.083L11.896 5.22901L14.896 8.22901ZM12.458 7.68801L11.917 7.12501L13 8.22901L12.458 7.68801Z" fill="white"/>
</svg>
