<svg width="20" height="20" viewBox="0 0 20 20" fill="currentColor" xmlns="http://www.w3.org/2000/svg">
<path d="M15.354 17.583C15.2707 17.583 15.1943 17.5693 15.125 17.542C15.0557 17.514 14.9793 17.4653 14.896 17.396L10.667 13.125V12.229L12.208 10.688H13.104L17.354 14.938C17.4373 15.0073 17.493 15.08 17.521 15.156C17.5483 15.2327 17.562 15.3127 17.562 15.396C17.562 15.4933 17.5483 15.5767 17.521 15.646C17.493 15.7153 17.4373 15.7917 17.354 15.875L15.833 17.396C15.7497 17.4653 15.677 17.514 15.615 17.542C15.5523 17.5693 15.4653 17.583 15.354 17.583V17.583ZM15.354 16.354L16.333 15.396L12.833 11.917L11.875 12.875L15.354 16.354ZM4.64599 17.583C4.54865 17.583 4.46166 17.5657 4.38499 17.531C4.30899 17.4963 4.23632 17.4443 4.16699 17.375L2.64599 15.854C2.56265 15.7707 2.50699 15.6943 2.47899 15.625C2.45166 15.5557 2.43799 15.4793 2.43799 15.396C2.43799 15.3127 2.45166 15.2293 2.47899 15.146C2.50699 15.0627 2.56265 14.9793 2.64599 14.896L6.85399 10.708H8.58299L9.29199 10L5.74999 6.45801H4.49999L2.45799 4.41701L4.41699 2.45801L6.45799 4.50001V5.75001L10.021 9.22901L12.646 6.62501L11.438 5.41701L12.521 4.35401H10.354L9.95799 3.95801L12.458 1.45801L12.833 1.85401V4.02101L13.917 2.93801L16.938 5.93801C17.132 6.14601 17.281 6.37834 17.385 6.63501C17.4897 6.89234 17.542 7.16667 17.542 7.45801C17.542 7.69401 17.5073 7.92334 17.438 8.14601C17.368 8.36801 17.2497 8.57634 17.083 8.77101L15.396 7.10401L14.25 8.22901L13.396 7.37501L9.31199 11.458V13.188L5.10399 17.375C5.02066 17.4443 4.94432 17.4963 4.87499 17.531C4.80565 17.5657 4.72932 17.583 4.64599 17.583V17.583ZM4.64599 16.312L8.18799 12.771L7.24999 11.812L3.68799 15.375L4.64599 16.312Z" />
</svg>
