<svg width="20" height="20" viewBox="0 0 20 20" fill="currentColor" xmlns="http://www.w3.org/2000/svg">
<path d="M14.604 7.39599H15.896V6.10399H14.604V7.39599ZM14.604 10.646H15.896V9.35399H14.604V10.646ZM14.604 13.896H15.896V12.604H14.604V13.896ZM13.083 16.583V15.5H17.5V4.49999H10.25V6.37499L9.16699 5.58299V3.41699H18.583V16.583H13.083ZM1.41699 16.583V9.20799L6.49999 5.52099L11.583 9.20799V16.583H7.60399V13.292H5.39599V16.583H1.41699ZM2.49999 15.5H4.31199V12.208H8.68799V15.5H10.5V9.74999L6.49999 6.87499L2.49999 9.74999V15.5ZM8.68799 15.5V12.208H4.31199V15.5V12.208H8.68799V15.5Z"/>
</svg>
