<svg width="20" height="20" viewBox="0 0 20 20" fill="currentColor" xmlns="http://www.w3.org/2000/svg">
<path d="M7.99999 9.75001C7.27799 9.75001 6.66699 9.49667 6.16699 8.99001C5.66699 8.48267 5.41699 7.87501 5.41699 7.16701C5.41699 6.44434 5.66699 5.83301 6.16699 5.33301C6.66699 4.83301 7.27799 4.58301 7.99999 4.58301C8.72199 4.58301 9.33299 4.83301 9.83299 5.33301C10.333 5.83301 10.583 6.44434 10.583 7.16701C10.583 7.87501 10.333 8.48267 9.83299 8.99001C9.33299 9.49667 8.72199 9.75001 7.99999 9.75001ZM2.41699 15.417V13.979C2.41699 13.6597 2.49333 13.382 2.64599 13.146C2.79866 12.91 3.01399 12.7087 3.29199 12.542C4.02799 12.1253 4.77799 11.8057 5.54199 11.583C6.30599 11.361 7.12533 11.25 7.99999 11.25C8.13866 11.25 8.26699 11.2533 8.38499 11.26C8.50299 11.2673 8.63166 11.278 8.77099 11.292C8.70166 11.472 8.65299 11.6523 8.62499 11.833C8.59699 12.0137 8.57599 12.1873 8.56199 12.354L7.99999 12.333C7.27799 12.333 6.57666 12.4163 5.89599 12.583C5.21533 12.7497 4.53466 13.0413 3.85399 13.458C3.72933 13.5273 3.63899 13.604 3.58299 13.688C3.52766 13.7707 3.49999 13.8677 3.49999 13.979V14.333H8.72899C8.77099 14.5137 8.82999 14.6977 8.90599 14.885C8.98266 15.073 9.06966 15.2503 9.16699 15.417H2.41699ZM13.396 16.208L13.208 15.188C12.986 15.132 12.7743 15.045 12.573 14.927C12.3717 14.809 12.1877 14.6737 12.021 14.521L11.042 14.854L10.604 14.125L11.375 13.417C11.2777 13.1943 11.2327 12.958 11.24 12.708C11.2467 12.458 11.2917 12.229 11.375 12.021L10.625 11.312L11.042 10.562L12 10.896C12.1527 10.7153 12.3367 10.566 12.552 10.448C12.7673 10.33 12.986 10.25 13.208 10.208L13.417 9.18801H14.271L14.479 10.208C14.701 10.264 14.9197 10.3473 15.135 10.458C15.3503 10.5693 15.5347 10.7083 15.688 10.875L16.646 10.583L17.062 11.292L16.333 11.979C16.403 12.215 16.438 12.458 16.438 12.708C16.438 12.958 16.396 13.1943 16.312 13.417L17.083 14.104L16.646 14.833L15.667 14.521C15.5003 14.6737 15.3163 14.8127 15.115 14.938C14.913 15.0627 14.701 15.146 14.479 15.188L14.25 16.208H13.396ZM13.854 14.125C14.2433 14.125 14.5733 13.9827 14.844 13.698C15.1147 13.4133 15.25 13.0767 15.25 12.688C15.25 12.2987 15.111 11.9653 14.833 11.688C14.5557 11.41 14.2223 11.271 13.833 11.271C13.4443 11.271 13.111 11.41 12.833 11.688C12.5557 11.9653 12.417 12.3053 12.417 12.708C12.417 13.0973 12.5557 13.4307 12.833 13.708C13.111 13.986 13.4513 14.125 13.854 14.125ZM7.99999 8.66701C8.41666 8.66701 8.77066 8.51767 9.06199 8.21901C9.35399 7.92034 9.49999 7.56267 9.49999 7.14601C9.49999 6.74334 9.35399 6.39601 9.06199 6.10401C8.77066 5.81267 8.41666 5.66701 7.99999 5.66701C7.58333 5.66701 7.22933 5.81267 6.93799 6.10401C6.64599 6.39601 6.49999 6.75034 6.49999 7.16701C6.49999 7.58367 6.64599 7.93767 6.93799 8.22901C7.22933 8.52101 7.58333 8.66701 7.99999 8.66701Z" />
</svg>
