<svg width="20" height="20" viewBox="0 0 20 20" fill="currentColor" xmlns="http://www.w3.org/2000/svg">
<path d="M9.33299 16.25L4.87499 13.708C4.66633 13.5693 4.50299 13.3993 4.38499 13.198C4.26699 12.9967 4.20799 12.778 4.20799 12.542V7.45799C4.20799 7.20799 4.26699 6.98233 4.38499 6.78099C4.50299 6.57966 4.66633 6.42333 4.87499 6.31199L9.33299 3.72899C9.54166 3.61766 9.76399 3.56199 9.99999 3.56199C10.236 3.56199 10.4583 3.61766 10.667 3.72899L15.125 6.31199C15.3337 6.42333 15.497 6.57966 15.615 6.78099C15.733 6.98233 15.792 7.20799 15.792 7.45799V12.562C15.792 12.7847 15.733 12.9967 15.615 13.198C15.497 13.3993 15.3337 13.5693 15.125 13.708L10.667 16.25C10.4583 16.3753 10.236 16.438 9.99999 16.438C9.76399 16.438 9.54166 16.3753 9.33299 16.25ZM9.45799 15.083V10.292L5.29199 7.81199V12.542C5.29199 12.5833 5.30233 12.625 5.32299 12.667C5.34366 12.7083 5.37499 12.743 5.41699 12.771L9.45799 15.083ZM10.542 15.083L14.583 12.771C14.625 12.743 14.6563 12.7083 14.677 12.667C14.6977 12.625 14.708 12.5833 14.708 12.542V7.83299L10.542 10.312V15.083ZM1.41699 4.99999V3.66699C1.41699 3.04166 1.63566 2.51033 2.07299 2.07299C2.51033 1.63566 3.04166 1.41699 3.66699 1.41699H4.99999V2.49999H3.66699C3.33366 2.49999 3.05566 2.61099 2.83299 2.83299C2.61099 3.05566 2.49999 3.33366 2.49999 3.66699V4.99999H1.41699ZM3.66699 18.583C3.04166 18.583 2.51033 18.3643 2.07299 17.927C1.63566 17.4897 1.41699 16.9583 1.41699 16.333V15H2.49999V16.333C2.49999 16.6663 2.61099 16.9443 2.83299 17.167C3.05566 17.389 3.33366 17.5 3.66699 17.5H4.99999V18.583H3.66699ZM15 18.5V17.417H16.333C16.6663 17.417 16.9443 17.3057 17.167 17.083C17.389 16.861 17.5 16.5833 17.5 16.25V14.917H18.583V16.25C18.583 16.8753 18.3643 17.4067 17.927 17.844C17.4897 18.2813 16.9583 18.5 16.333 18.5H15ZM17.5 4.99999V3.66699C17.5 3.33366 17.389 3.05566 17.167 2.83299C16.9443 2.61099 16.6663 2.49999 16.333 2.49999H15V1.41699H16.333C16.9583 1.41699 17.4897 1.63566 17.927 2.07299C18.3643 2.51033 18.583 3.04166 18.583 3.66699V4.99999H17.5ZM9.99999 9.37499L14.042 6.95799L10.125 4.70799C10.083 4.68066 10.0413 4.66699 9.99999 4.66699C9.95866 4.66699 9.91699 4.68066 9.87499 4.70799L5.95799 6.95799L9.99999 9.37499Z"/>
</svg>
