<svg width="20" height="20" viewBox="0 0 20 20" fill="currentColor" xmlns="http://www.w3.org/2000/svg">
<path d="M9.24999 16.562C7.87533 16.382 6.72599 15.7747 5.80199 14.74C4.87866 13.7053 4.41699 12.4727 4.41699 11.042C4.41699 10.264 4.56266 9.54166 4.85399 8.87499C5.14599 8.20833 5.54199 7.62499 6.04199 7.12499L6.79199 7.89599C6.38933 8.28466 6.07333 8.75333 5.84399 9.30199C5.61466 9.85066 5.49999 10.4307 5.49999 11.042C5.49999 12.1667 5.85766 13.1353 6.57299 13.948C7.28833 14.7607 8.18066 15.264 9.24999 15.458V16.562ZM10.75 16.583V15.479C11.8193 15.271 12.7117 14.7607 13.427 13.948C14.1423 13.1353 14.5 12.1667 14.5 11.042C14.5 9.79199 14.0627 8.72933 13.188 7.85399C12.3127 6.97933 11.25 6.54199 9.99999 6.54199H9.62499L10.792 7.70799L10.021 8.45799L7.56199 5.99999L10.021 3.54199L10.792 4.31199L9.64599 5.45799H9.99999C11.5553 5.45799 12.8747 5.99966 13.958 7.08299C15.0413 8.16633 15.583 9.48599 15.583 11.042C15.583 12.4727 15.118 13.7053 14.188 14.74C13.2573 15.7747 12.1113 16.389 10.75 16.583V16.583Z" fill="black"/>
</svg>
