<svg width="20" height="20" viewBox="0 0 20 20" fill="currentColor" xmlns="http://www.w3.org/2000/svg">
<path xmlns="http://www.w3.org/2000/svg" d="M14 5.41701C15.278 5.41701 16.3613 5.86134 17.25 6.75001C18.1387 7.63867 18.583 8.72201 18.583 10C18.583 11.278 18.1387 12.3613 17.25 13.25C16.3613 14.1387 15.278 14.583 14 14.583L6.00001 14.583C4.72201 14.583 3.63867 14.1387 2.75001 13.25C1.86134 12.3613 1.41701 11.278 1.41701 10C1.41701 8.72201 1.86134 7.63868 2.75001 6.75001C3.63867 5.86134 4.72201 5.41701 6.00001 5.41701L14 5.41701ZM6.00001 7.70801C5.36134 7.70801 4.81967 7.93034 4.37501 8.37501C3.93034 8.81968 3.70801 9.36134 3.70801 10C3.70801 10.6387 3.93034 11.1803 4.37501 11.625C4.81967 12.0697 5.36134 12.292 6.00001 12.292C6.63867 12.292 7.18034 12.0697 7.62501 11.625C8.06967 11.1803 8.29201 10.6387 8.29201 10C8.29201 9.36134 8.06967 8.81968 7.62501 8.37501C7.18034 7.93034 6.63867 7.70801 6.00001 7.70801Z" fill="#99A3B2"/></svg>
