<svg width="20" height="20" viewBox="0 0 20 20" fill="none" xmlns="http://www.w3.org/2000/svg">
<path xmlns="http://www.w3.org/2000/svg" d="M5.99999 14.583C4.72199 14.583 3.63866 14.1387 2.74999 13.25C1.86133 12.3613 1.41699 11.278 1.41699 9.99999C1.41699 8.72199 1.86133 7.63866 2.74999 6.74999C3.63866 5.86133 4.72199 5.41699 5.99999 5.41699H14C15.278 5.41699 16.3613 5.86133 17.25 6.74999C18.1387 7.63866 18.583 8.72199 18.583 9.99999C18.583 11.278 18.1387 12.3613 17.25 13.25C16.3613 14.1387 15.278 14.583 14 14.583H5.99999ZM14 12.292C14.6387 12.292 15.1803 12.0697 15.625 11.625C16.0697 11.1803 16.292 10.6387 16.292 9.99999C16.292 9.36133 16.0697 8.81966 15.625 8.37499C15.1803 7.93033 14.6387 7.70799 14 7.70799C13.3613 7.70799 12.8197 7.93033 12.375 8.37499C11.9303 8.81966 11.708 9.36133 11.708 9.99999C11.708 10.6387 11.9303 11.1803 12.375 11.625C12.8197 12.0697 13.3613 12.292 14 12.292Z" fill="#56D689"/>
</svg>
