<svg width="20" height="20" viewBox="0 0 20 20" fill="currentColor" xmlns="http://www.w3.org/2000/svg">
<path d="M13 10.875L11.979 9.854C12.0343 9.28467 11.8643 8.81934 11.469 8.458C11.073 8.09734 10.632 7.94467 10.146 8L9.12501 6.979C9.26367 6.93767 9.40601 6.90634 9.55201 6.885C9.69801 6.86434 9.84734 6.854 10 6.854C10.8747 6.854 11.6177 7.15967 12.229 7.771C12.8403 8.38234 13.146 9.12534 13.146 10C13.146 10.1527 13.1357 10.3053 13.115 10.458C13.0937 10.6113 13.0553 10.7503 13 10.875ZM15.75 13.604L14.958 12.833C15.458 12.4443 15.913 12.0173 16.323 11.552C16.733 11.0867 17.0767 10.5693 17.354 10C16.6733 8.59734 15.67 7.49667 14.344 6.698C13.0173 5.89934 11.5693 5.5 10 5.5C9.63867 5.5 9.28467 5.52067 8.93801 5.562C8.59067 5.604 8.25034 5.67367 7.91701 5.771L7.02101 4.875C7.50701 4.69434 8.00001 4.57267 8.50001 4.51C9.00001 4.448 9.50001 4.417 10 4.417C11.8473 4.417 13.559 4.91334 15.135 5.906C16.7117 6.89934 17.8473 8.264 18.542 10C18.25 10.722 17.868 11.3783 17.396 11.969C16.924 12.559 16.3753 13.104 15.75 13.604ZM15.958 17.521L13.396 14.917C12.924 15.125 12.3997 15.288 11.823 15.406C11.2463 15.524 10.6387 15.583 10 15.583C8.15267 15.583 6.44434 15.0867 4.87501 14.094C3.30567 13.1007 2.16667 11.736 1.45801 10C1.77801 9.208 2.20867 8.48234 2.75001 7.823C3.29134 7.163 3.90234 6.59 4.58301 6.104L2.47901 4.021L3.25001 3.229L16.75 16.75L15.958 17.521ZM5.35401 6.896C4.82601 7.27067 4.31567 7.722 3.82301 8.25C3.32967 8.778 2.93734 9.36134 2.64601 10C3.32667 11.4027 4.33001 12.5033 5.65601 13.302C6.98267 14.1007 8.43067 14.5 10 14.5C10.4587 14.5 10.917 14.4617 11.375 14.385C11.833 14.309 12.2287 14.2153 12.562 14.104L11.333 12.875C11.139 12.9583 10.924 13.0243 10.688 13.073C10.4513 13.1217 10.222 13.146 10 13.146C9.12534 13.146 8.38234 12.8403 7.77101 12.229C7.15967 11.6177 6.85401 10.8747 6.85401 10C6.85401 9.792 6.88534 9.56634 6.94801 9.323C7.01067 9.07967 7.06967 8.861 7.12501 8.667L5.35401 6.896Z" />
</svg>
